<svg width="34" height="35" viewBox="0 0 34 35" fill="none" xmlns="http://www.w3.org/2000/svg">
<path d="M13.9687 7.58296C14.9777 7.24664 16.0539 7.06727 17.1705 7.06727C22.0584 7.06727 26.1391 10.5381 27.0719 15.1525L34.0001 13.7399C32.4127 5.90135 25.4799 0 17.1705 0C15.2647 0 13.4396 0.309417 11.7266 0.883408L13.9687 7.58296Z" fill="#FFCB05"/>
<path d="M5.79372 30.0314L10.4798 24.7354C8.39014 22.8834 7.07175 20.1794 7.07175 17.1659C7.07175 14.157 8.39014 11.4529 10.4798 9.60538L5.79372 4.30493C2.24215 7.45291 0 12.0493 0 17.1659C0 22.287 2.24215 26.8834 5.79372 30.0314" fill="#00A4E0"/>
<path d="M27.0719 19.1927C26.1346 23.8026 22.0584 27.269 17.175 27.269C16.0539 27.269 14.9732 27.0896 13.9687 26.7488L11.7266 33.4573C13.4396 34.0268 15.2692 34.3363 17.175 34.3363C25.4754 34.3363 32.4037 28.4439 34.0001 20.6143L27.0719 19.1927Z" fill="#EF4123"/>
</svg>
